. 
  
http://www.torrentday.com/        :     The Hottest Private Tracker On The Net!!!


               www . TorrentDay . Com 
(((((((((((((= Enjoy No RAR releases =))))))))))))))))))))


...................................NFO:....................................

.*******************************************************************************
                  A.Teachers.Crime.2008.DVDRip.AC3.X264-BARC0DE
*******************************************************************************

-------------------------------------------------------------------------------
                              General Information
-------------------------------------------------------------------------------
Type.................: Movie
Name.................: A Teacher's Crime
Movie Information....: http://www.imdb.com/title/tt1133948/
Genre................: Crime | Drama | Mystery

-------------------------------------------------------------------------------
                                    PLOT
-------------------------------------------------------------------------------
Carrie is an attractive high school history teacher who one day decides to help 
a troubled student, taking an special interest for him, unaware of the ruthless 
and perverse scheme masterminded for her..

-------------------------------------------------------------------------------
                                    CAST
-------------------------------------------------------------------------------
Ashley Jones	... 	Carrie Ryans
Erik Knudsen	... 	Jeremy Rander
Chris Mulkey	... 	Bill Rander
Claudia Besso	... 	Patti Meyers
Larry Day	... 	Detective Chay
Ellen Dubin	... 	Anne Libby
James Gallanders	... 	Dean Ryans
Kyle Gatehouse	... 	Pete Morten
Art Hindle	... 	David McMillian
Paula Jean Hixson	... 	Principal Wilson
Tommie-Amber Pirie	... 	Jennifer Smith
Tom Rack	... 	Evan
Sonya Salomaa	... 	Shannon
-------------------------------------------------------------------------------
                                    MEDiA iNFO
-------------------------------------------------------------------------------

General
Complete name                    : A.Teachers.Crime.2008.DVDRip.AC3.X264-BARC0DE.mkv
Format                           : Matroska
File size                        : 1.44 GiB
Duration                         : 1h 29mn
Overall bit rate                 : 2 300 Kbps


Video
ID                               : 1
Format                           : AVC
Format/Info                      : Advanced Video Codec
Format profile                   : High@L3.0
Format settings, CABAC           : Yes
Format settings, ReFrames        : 3 frames
Muxing mode                      : Container profile=Unknown@3.0
Codec ID                         : V_MPEG4/ISO/AVC
Duration                         : 1h 29mn
Bit rate                         : 1 877 Kbps
Width                            : 720 pixels
Height                           : 400 pixels
Display aspect ratio             : 16:9
Frame rate                       : 25.000 fps
Color space                      : YUV
Chroma subsampling               : 4:2:0
Bit depth                        : 8 bits
Scan type                        : Progressive
Bits/(Pixel*Frame)               : 0.261
Stream size                      : 1.13 GiB (79%)
Writing library                  : x264 core 79


Audio
ID                               : 2
Format                           : AC-3
Format/Info                      : Audio Coding 3
Mode extension                   : CM (complete main)
Codec ID                         : A_AC3
Duration                         : 1h 29mn
Bit rate mode                    : Constant
Bit rate                         : 448 Kbps
Channel(s)                       : 6 channels
Channel positions                : Front: L C R, Side: L R, LFE
Sampling rate                    : 48.0 KHz
Stream size                      : 288 MiB (19%)
Language                         : English